<svg id="Réteg_1" data-name="Réteg 1" xmlns="http://www.w3.org/2000/svg" viewBox="0 0 1280 2207.66"><defs><style>.cls-1{fill:#f8ffb8;}</style></defs><path class="cls-1" d="M1280,2207.66V22.75C1252.13,18.28,1236.3,0,1200.81,0c-40.43,0-40.43,23.73-80.86,23.73S1079.51,0,1039.08,0s-40.43,23.73-80.87,23.73S917.78,0,877.34,0s-40.43,23.73-80.86,23.73S756,0,715.61,0s-40.44,23.73-80.87,23.73S594.3,0,553.87,0,513.44,23.73,473,23.73,432.57,0,392.13,0,351.7,23.73,311.27,23.73,270.83,0,230.4,0,190,23.73,149.53,23.73,109.1,0,68.66,0C37.88,0,19.6,13.76,0,20.32V2207.66Z"/></svg>