<svg id="Réteg_1" data-name="Réteg 1" xmlns="http://www.w3.org/2000/svg" viewBox="0 0 70 31"><defs><style>.cls-1{fill:#00dbdc;}.cls-2{fill:#f8ff81;}</style></defs><path class="cls-1" d="M54.05,30.35a27.1,27.1,0,0,0-38.29,0L.15,14.75a49.09,49.09,0,0,1,69.5,0Z"/><path class="cls-2" d="M15.87,13.12l2.87-1.22a2.23,2.23,0,0,1,1.74-.15,1.38,1.38,0,0,1,.75.75v0a1.41,1.41,0,0,1-.33,1.62,1.46,1.46,0,0,1,1.69.89v0c.41,1-.13,1.88-1.46,2.44l-2.89,1.23Zm3.43,1.17c.48-.2.67-.47.53-.8h0c-.12-.31-.44-.38-.9-.19l-1,.43.42,1Zm1.13,2c.47-.2.67-.5.53-.83h0c-.13-.31-.45-.41-1-.19l-1.18.51.44,1Z"/><path class="cls-2" d="M46.58,15.87l1.27-.72a3.17,3.17,0,0,0,1.6,1.37c.42.16.7.1.79-.14v0c.09-.23,0-.44-.76-.91-1.11-.73-1.91-1.42-1.47-2.6h0c.4-1.06,1.53-1.51,2.9-1A3.86,3.86,0,0,1,53,13.48l-1.21.82a3.14,3.14,0,0,0-1.39-1.16c-.38-.14-.63-.05-.71.15v0c-.1.26,0,.45.78.92,1.2.78,1.85,1.51,1.45,2.58h0c-.44,1.17-1.62,1.51-3,1A4.23,4.23,0,0,1,46.58,15.87Z"/><path class="cls-2" d="M34.06,8.75H32.23V7.27h5.34V8.75H35.75v8.16H34.06Z"/><rect class="cls-2" x="41.03" y="11.59" width="2.23" height="2.23" transform="translate(-0.83 22.24) rotate(-29.29)"/><rect class="cls-2" x="26.35" y="11.59" width="2.23" height="2.23" transform="translate(2.93 30.42) rotate(-60.65)"/></svg>