<svg id="Réteg_1" data-name="Réteg 1" xmlns="http://www.w3.org/2000/svg" viewBox="0 0 1280 1137.95"><defs><style>.cls-1{fill:#f8ffb8;}</style></defs><path class="cls-1" d="M0,0V1115.2c27.87,4.47,42.38,22.75,77.87,22.75,40.43,0,40.43-23.73,80.86-23.73S199.17,1138,239.6,1138s40.43-23.73,80.87-23.73S360.9,1138,401.34,1138s40.43-23.73,80.86-23.73S522.64,1138,563.07,1138s40.44-23.73,80.87-23.73S684.38,1138,724.81,1138s40.43-23.73,80.87-23.73S846.11,1138,886.55,1138s40.43-23.73,80.86-23.73,40.44,23.73,80.87,23.73,40.43-23.73,80.87-23.73S1169.58,1138,1210,1138c30.78,0,50.38-13.76,70-20.32V0Z"/></svg>