<svg id="Réteg_1" data-name="Réteg 1" xmlns="http://www.w3.org/2000/svg" viewBox="0 0 291 50"><defs><style>.cls-1{fill:#00dbdc;}.cls-2{fill:#f8ff81;}</style></defs><path class="cls-1" d="M50.37,25a25,25,0,1,1-25-25A25,25,0,0,1,50.37,25Z"/><path class="cls-2" d="M42.64,29.1H34.79a7.68,7.68,0,0,1-5.7-3.27c-1.66-2.51-1.6-5.92.19-10.12l1.84.78c-1.51,3.55-1.63,6.32-.36,8.24a5.68,5.68,0,0,0,4,2.37h7.85Z"/><path class="cls-2" d="M16.8,29.1H8.1v-2h6.7a13.07,13.07,0,0,1,4.89-8.62c4.8-4,10.63-3.62,14.59-3l-.31,2c-3.58-.57-8.82-.91-13,2.56-4.39,3.65-4.23,8-4.22,8Z"/><path class="cls-1" d="M110.43,25a25,25,0,1,1-25-25A25,25,0,0,1,110.43,25Z"/><path class="cls-2" d="M83.21,41.29l-.6-1c-2-3.48-3-11.9-3-18.06A17.09,17.09,0,0,1,84.78,9.49L85.42,9l.65.54a17.09,17.09,0,0,1,5.22,12.69c0,6.16-1.07,14.58-3.05,18.06l-.6,1-2.21-1.9Zm2.22-4.53L87,38.13c1.43-3.6,2.26-10.59,2.26-16a15.68,15.68,0,0,0-3.86-10.51,15.74,15.74,0,0,0-3.87,10.51c0,5.36.84,12.35,2.26,16Z"/><path class="cls-1" d="M170.48,25a25,25,0,1,1-25-25A25,25,0,0,1,170.48,25Z"/><path class="cls-2" d="M159.75,35.46H134.11v-22h13.67V23.74l7.15,1.19a7.08,7.08,0,0,1,5.75,7,7,7,0,0,1-.66,3Zm-23.64-2h22.33a5.15,5.15,0,0,0,.24-1.57,5.09,5.09,0,0,0-4.12-5l-8.78-1.45V15.5h-9.67Z"/><rect class="cls-2" x="140.86" y="18.56" width="5.92" height="2"/><rect class="cls-2" x="135.11" y="32.02" width="24.42" height="2"/><path class="cls-1" d="M230.54,25a25,25,0,1,1-25-25A25,25,0,0,1,230.54,25Z"/><polygon class="cls-2" points="221.59 27.48 198.59 27.48 189.47 18.37 190.88 16.95 199.42 25.48 221.59 25.48 221.59 27.48"/><rect class="cls-2" x="193.11" y="29.28" width="7.5" height="2" transform="translate(90.12 198.44) rotate(-66.34)"/><rect class="cls-2" x="214.26" y="26.3" width="2" height="7.24" transform="translate(1.55 69.42) rotate(-18.39)"/><rect class="cls-2" x="200.53" y="9.91" width="4.43" height="2" transform="translate(33.13 122.5) rotate(-36.42)"/><rect class="cls-2" x="205.4" y="13.8" width="4.43" height="2" transform="translate(110.9 199.1) rotate(-66.39)"/><rect class="cls-2" x="212.77" y="13.51" width="2" height="4.43" transform="translate(-0.42 24.06) rotate(-6.43)"/><path class="cls-1" d="M290.6,25a25,25,0,1,1-25-25A25,25,0,0,1,290.6,25Z"/><path class="cls-2" d="M275.35,37.63h-19.5V11.54h19.5Zm-17.5-2h15.5V13.54h-15.5Z"/><path class="cls-2" d="M265.6,21.65a3.11,3.11,0,1,1,3.11-3.11A3.11,3.11,0,0,1,265.6,21.65Zm0-4.21a1.11,1.11,0,1,0,1.11,1.1A1.11,1.11,0,0,0,265.6,17.44Z"/><path class="cls-2" d="M265.6,34.65a6.25,6.25,0,1,1,6.25-6.24A6.25,6.25,0,0,1,265.6,34.65Zm0-10.49a4.25,4.25,0,1,0,4.25,4.25A4.26,4.26,0,0,0,265.6,24.16Z"/></svg>