<svg id="Réteg_1" data-name="Réteg 1" xmlns="http://www.w3.org/2000/svg" viewBox="0 0 133 58"><defs><style>.cls-1{fill:#00dbdc;}.cls-2{fill:#00b033;}.cls-3{fill:#976b00;}</style></defs><rect class="cls-1" x="62.15" y="30.72" width="70.5" height="6"/><path class="cls-2" d="M47.15,52H.32V48.9c0-7.23,5.89-23.08,23.41-23.08S47.15,41.67,47.15,48.9ZM6.87,45.82H40.6C39.29,40.06,34.49,32,23.73,32S8.17,40.06,6.87,45.82Z"/><rect class="cls-1" x="0.4" y="51.73" width="46.66" height="6"/><rect class="cls-3" x="20.64" y="17.55" width="6.19" height="19.83"/><polygon class="cls-2" points="23.76 21.47 12.19 12.58 15.95 7.68 23.7 13.64 31.14 7.72 34.98 12.55 23.76 21.47"/><polygon class="cls-2" points="23.76 14.05 12.19 5.16 15.95 0.27 23.7 6.22 31.14 0.3 34.98 5.13 23.76 14.05"/></svg>